<?xml version="1.0" standalone="no"?>
<!DOCTYPE svg PUBLIC "-//W3C//DTD SVG 20010904//EN"
 "http://www.w3.org/TR/2001/REC-SVG-20010904/DTD/svg10.dtd">
<svg version="1.0" xmlns="http://www.w3.org/2000/svg"
 width="1000.000000pt" height="1000.000000pt" viewBox="0 0 1000.000000 1000.000000"
 preserveAspectRatio="xMidYMid meet">
<metadata>
Created by potrace 1.14, written by Peter Selinger 2001-2017
</metadata>
<g transform="translate(0.000000,1000.000000) scale(0.100000,-0.100000)"
fill="#000000" stroke="none">
<path d="M5009 8263 l-26 -4 -1 -142 c0 -203 -13 -2092 -15 -2275 l-2 -152 60
0 60 0 2 378 c1 207 4 785 8 1285 6 896 6 907 -14 907 -11 0 -25 2 -33 3 -7 2
-25 2 -39 0z"/>
<path d="M2539 6783 c-41 -105 -409 -1086 -409 -1089 0 -2 10 -4 23 -4 21 0
32 25 127 278 57 152 111 294 120 315 l17 37 119 -315 119 -315 177 0 c100 0
178 4 178 9 0 5 -30 87 -66 183 -37 95 -76 200 -89 233 -63 169 -227 603 -234
620 -5 11 -13 32 -20 48 -7 17 -18 27 -31 27 -13 0 -24 -10 -31 -27z"/>
<path d="M7298 6805 c-1 -1 -52 -6 -112 -10 -60 -4 -116 -8 -125 -10 -14 -2
-77 -8 -216 -20 -22 -2 -67 -6 -100 -10 -216 -22 -336 -28 -652 -28 -270 -1
-293 -2 -293 -18 0 -19 20 -29 59 -29 88 0 193 -76 232 -168 61 -142 78 -295
88 -789 l1 -33 175 0 175 0 0 103 c1 56 1 267 1 468 -1 279 2 369 12 377 23
19 261 72 437 97 113 17 364 22 460 10 66 -8 113 -15 140 -20 14 -3 37 -7 52
-10 62 -12 197 -59 263 -93 238 -122 360 -306 369 -554 4 -123 -20 -212 -102
-370 -2 -5 80 -8 182 -8 l185 0 16 30 c46 89 73 232 69 366 -12 358 -249 597
-679 683 -55 11 -118 23 -140 26 -42 6 -491 16 -497 10z"/>
<path d="M752 5138 c-131 -285 -172 -377 -172 -389 0 -5 11 -9 25 -9 21 0 30
11 57 68 18 37 34 69 36 72 2 3 70 5 150 6 l147 0 35 -70 c34 -69 60 -90 81
-69 8 8 -85 224 -221 516 -10 20 -21 27 -40 27 -25 0 -32 -11 -98 -152z m118
41 c0 -5 11 -32 24 -61 49 -108 76 -171 76 -178 0 -5 -54 -9 -120 -9 -72 -1
-120 2 -120 8 0 5 26 68 57 140 45 101 60 128 70 119 7 -6 13 -14 13 -19z"/>
<path d="M1459 5251 c0 -51 -1 -484 0 -497 1 -8 55 -11 179 -10 176 1 177 1
180 24 3 22 3 22 -147 22 -137 0 -151 2 -152 18 0 9 -1 120 -2 246 l-2 230
-27 1 c-26 2 -28 -1 -29 -34z"/>
<path d="M2166 5280 c-2 -3 -3 -124 -2 -270 l1 -265 170 -2 c197 -2 215 0 215
27 0 19 -7 20 -165 20 l-165 0 0 100 0 100 140 0 140 0 0 28 0 27 -137 0 -138
0 -3 95 -3 95 159 0 159 0 1 25 1 25 -186 0 c-101 0 -186 -2 -187 -5z"/>
<path d="M2870 5281 c0 -4 41 -63 90 -131 50 -68 90 -128 90 -132 0 -5 -32
-52 -72 -106 -39 -53 -82 -112 -95 -130 -28 -38 -23 -53 14 -43 20 5 50 39
108 119 44 61 83 111 87 112 4 0 44 -52 90 -115 76 -105 86 -114 116 -115 17
0 32 3 32 8 0 4 -41 61 -90 127 -49 66 -94 127 -99 135 -7 12 14 47 85 143 52
70 94 128 94 130 0 1 -14 2 -31 2 -27 1 -38 -8 -73 -55 -22 -30 -47 -61 -53
-68 -7 -7 -13 -16 -13 -20 -1 -4 -14 -22 -29 -40 l-29 -34 -78 104 c-42 56
-79 105 -80 107 -6 7 -64 9 -64 2z"/>
<path d="M4139 5286 c-1 -1 -2 -124 -3 -273 l-1 -273 30 -1 c104 -2 265 1 294
6 51 9 90 33 111 68 40 65 15 158 -51 193 l-32 16 26 21 c34 29 47 58 47 104
0 50 -29 95 -76 118 -31 14 -67 18 -191 19 -84 1 -154 2 -154 2z m305 -71 c44
-19 61 -51 52 -98 -11 -58 -42 -71 -181 -75 l-120 -4 0 96 0 96 106 0 c73 0
118 -5 143 -15z m41 -249 c31 -20 47 -59 41 -97 -10 -63 -54 -80 -213 -83
l-123 -3 0 102 0 102 134 -2 c108 -1 140 -5 161 -19z"/>
<path d="M4966 5280 c-2 -3 -3 -124 -2 -270 l1 -265 193 -1 192 0 0 23 0 23
-163 0 -164 0 -1 100 -1 100 140 0 139 0 0 28 0 27 -131 0 c-72 0 -134 2 -139
5 -4 3 -7 46 -7 95 l2 90 145 1 c184 2 172 0 168 26 -3 23 -4 23 -186 23 -101
0 -185 -2 -186 -5z"/>
<path d="M5735 5280 c-1 -3 -3 -125 -3 -272 l1 -268 28 0 c32 0 31 -3 30 102
l-1 67 94 3 94 3 61 -87 c57 -82 63 -87 96 -86 40 1 41 -1 -39 108 l-55 75 34
17 c78 41 109 142 70 234 -22 52 -63 85 -125 99 -39 9 -280 14 -285 5z m294
-65 c49 -25 73 -71 68 -128 -8 -89 -57 -119 -201 -121 l-101 -1 -2 130 c-1 80
2 132 8 136 21 13 196 1 228 -16z"/>
<path d="M6539 5280 c-1 -3 -2 -125 -3 -271 l-1 -266 193 0 192 0 0 23 0 24
-165 0 -165 0 1 100 1 100 140 0 139 0 -3 27 -3 28 -135 0 -135 0 0 95 0 95
155 0 155 0 0 25 0 25 -182 0 c-101 0 -184 -2 -184 -5z"/>
<path d="M7425 5203 c-21 -48 -58 -128 -81 -178 -75 -164 -124 -272 -124 -277
0 -3 13 -5 28 -6 26 0 32 6 63 71 l34 72 148 1 148 0 34 -71 c30 -66 36 -72
64 -73 17 0 31 0 31 1 0 2 -55 124 -123 272 -118 260 -124 270 -153 273 -28 3
-31 -1 -69 -85z m115 -90 c51 -117 72 -165 77 -176 3 -4 -52 -7 -121 -6 -69 0
-126 3 -126 5 0 2 12 29 26 61 30 67 44 99 73 166 11 26 22 47 24 47 3 0 24
-44 47 -97z"/>
<path d="M8113 5281 c-12 -9 -10 -540 2 -545 6 -2 19 0 30 4 20 7 20 16 20
214 0 113 2 206 6 206 6 0 322 -396 327 -411 2 -5 17 -9 33 -9 l29 0 -2 273
c-3 290 -1 275 -46 268 -5 0 -9 -94 -9 -207 0 -113 -3 -207 -6 -210 -2 -3 -53
57 -113 133 -59 76 -111 140 -114 143 -3 3 -19 23 -36 45 -67 91 -96 114 -121
96z"/>
<path d="M8983 5281 c-9 -6 -9 -348 0 -386 17 -67 58 -118 115 -142 81 -34
204 -17 260 37 57 54 64 85 66 290 2 102 1 190 -1 196 -2 6 -14 10 -26 9 -22
-2 -22 -5 -27 -191 -5 -191 -10 -213 -49 -258 -49 -56 -188 -57 -240 -2 -39
41 -47 91 -47 274 1 94 -1 172 -4 173 -3 0 -12 2 -21 4 -9 1 -21 0 -26 -4z"/>
<path d="M1593 4306 c-10 -5 -20 -12 -23 -15 -3 -3 -27 -24 -55 -46 -52 -41
-233 -219 -273 -268 -102 -125 -190 -296 -223 -433 -28 -114 -30 -282 -5 -404
54 -264 213 -462 443 -555 32 -13 72 -27 88 -30 17 -3 44 -9 60 -12 17 -4 91
-7 165 -6 312 1 580 112 800 333 244 243 387 573 454 1040 7 49 18 230 20 319
1 60 -2 76 -16 85 -9 5 -19 8 -22 5 -3 -3 -8 -65 -10 -137 -17 -490 -184 -948
-439 -1204 -161 -161 -333 -238 -547 -244 -203 -6 -340 45 -471 175 -88 88
-146 195 -175 320 -17 79 -23 229 -12 321 21 164 92 337 199 481 58 78 243
269 261 269 4 0 8 4 8 9 0 12 -205 10 -227 -3z"/>
<path d="M3186 4313 c-2 -3 2 -20 10 -40 8 -19 59 -153 114 -296 54 -144 130
-346 169 -449 114 -302 136 -389 135 -533 -1 -103 -21 -160 -74 -213 -76 -76
-209 -120 -365 -122 -43 0 -51 -3 -52 -20 -1 -11 4 -21 10 -21 7 -1 310 -2
675 -3 l662 -1 0 21 c0 18 -8 22 -52 28 -169 23 -277 147 -441 506 -32 69
-238 608 -389 1015 -23 61 -45 115 -49 121 -8 10 -343 17 -353 7z"/>
<path d="M4959 4301 c-1 -9 -2 -187 -4 -396 -14 -1903 -15 -2159 -6 -2164 5
-3 31 -4 59 -3 l49 4 2 346 c4 575 9 1413 12 1832 l2 395 -57 1 c-45 1 -56 -2
-57 -15z"/>
<path d="M6180 4286 c-1 -325 -11 -1065 -14 -1106 -25 -281 -80 -421 -192
-482 -50 -27 -83 -36 -142 -37 -29 -1 -33 -4 -30 -23 l3 -22 350 -2 c315 -1
415 -5 553 -19 114 -13 140 -16 172 -20 19 -2 62 -7 95 -10 33 -3 78 -8 100
-10 114 -13 177 -17 360 -20 359 -5 588 37 831 155 316 153 518 422 590 785
21 104 23 315 4 426 -23 136 -86 292 -155 385 l-23 30 -156 1 c-86 0 -156 -1
-156 -4 0 -2 9 -21 20 -43 26 -51 78 -184 84 -212 2 -13 11 -50 19 -83 45
-173 42 -408 -8 -598 -88 -339 -318 -578 -673 -701 -56 -19 -106 -35 -110 -35
-4 0 -27 -5 -52 -11 -135 -32 -413 -44 -610 -26 -134 13 -375 69 -475 111
l-34 14 -1 663 c0 365 0 722 0 794 l0 131 -175 0 -175 -1 0 -30z"/>
</g>
</svg>
